<svg xmlns="http://www.w3.org/2000/svg" viewBox="0 0 256 256">
  <rect width="256" height="256" fill="#0D9488"/>
  <path d="M128 40c-2.207 0-4-1.793-4-4V12c0-2.207 1.793-4 4-4s4 1.793 4 4v24c0 2.207-1.793 4-4 4zm0 192c-2.207 0-4 1.793-4 4v24c0 2.207 1.793 4 4 4s4-1.793 4-4v-24c0-2.207-1.793-4-4-4zm96-96c2.207 0 4-1.793 4-4s-1.793-4-4-4h-24c-2.207 0-4 1.793-4 4s1.793 4 4 4h24zm-192 0c2.207 0 4-1.793 4-4s-1.793-4-4-4H12c-2.207 0-4 1.793-4 4s1.793 4 4 4h24zm135.029-70.029c1.56 0 3.121-.596 4.313-1.787l16.97-16.97c1.563-1.563 1.563-4.094 0-5.657-1.563-1.563-4.094-1.563-5.657 0l-16.97 16.97c-1.563 1.563-1.563 4.094 0 5.657.586.586 1.352.879 2.172.988.395.043.801.064 1.172.799zm-135.058 0c.371 0 .777-.021 1.172-.799.82-.109 1.586-.402 2.172-.988 1.563-1.563 1.563-4.094 0-5.657l-16.97-16.97c-1.563-1.563-4.094-1.563-5.657 0-1.563 1.563-1.563 4.094 0 5.657l16.97 16.97c1.191 1.191 2.752 1.787 4.313 1.787zm181.058 135.058c1.56 0 3.121-.596 4.313-1.787l16.97-16.97c1.563-1.563 1.563-4.094 0-5.657-1.563-1.563-4.094-1.563-5.657 0l-16.97 16.97c-1.563 1.563-1.563 4.094 0 5.657.586.586 1.352.879 2.172.988.395.043.801.064 1.172.799zm-135.058 0c.371 0 .777-.021 1.172-.799.82-.109 1.586-.402 2.172-.988 1.563-1.563 1.563-4.094 0-5.657l-16.97-16.97c-1.563-1.563-4.094-1.563-5.657 0-1.563 1.563-1.563 4.094 0 5.657l16.97 16.97c1.191 1.191 2.752 1.787 4.313 1.787z" fill="white" opacity="0.9"/>
</svg>
